<?xml version="1.0" encoding="utf-8"?>
<!-- Generator: Adobe Illustrator 19.0.0, SVG Export Plug-In . SVG Version: 6.00 Build 0)  -->
<svg version="1.1" id="Layer_1" xmlns="http://www.w3.org/2000/svg" xmlns:xlink="http://www.w3.org/1999/xlink" x="0px" y="0px"
	 viewBox="0 0 500 500" style="enable-background:new 0 0 500 500;" xml:space="preserve">
<style type="text/css">
	.st0{fill:#003380;}
</style>
<g id="XMLID_1_">
	<path id="XMLID_43_" class="st0" d="M72.5,294.5l-1.5-0.3l0.2-1.1c0.1-0.6,0.2-1.1,0.2-1.2c0,0,0.6,0.1,1.3,0.3
		c3.1,0.9,5.6-0.2,5.6-2.4c0-1.4-0.7-2.2-3.4-3.7c-1.4-0.7-2.7-1.7-3-2c-1.5-1.8-1.3-4.4,0.3-6.1c1.4-1.4,3.7-1.9,6.6-1.3l1.3,0.3
		l-0.1,1.2c0,0.6-0.1,1.2-0.1,1.2c0,0-0.5-0.1-1.1-0.3c-2-0.7-4.3-0.3-4.9,0.8c-0.4,0.8-0.3,1.8,0.4,2.6c0.3,0.4,1.5,1.2,2.6,1.8
		c2.6,1.4,3.6,2.5,4,4.1c0.7,3-0.7,5.4-3.9,6.2C75.4,295,74.5,295,72.5,294.5z M104,294.6c-1.6-0.4-2.5-0.9-3.7-2.1
		c-1.9-1.9-2.8-5.3-2.3-8.6c0.4-2.3,1.2-3.9,2.7-5.4c1.6-1.5,3.1-2,5.6-2s4,0.5,5.6,2c1.6,1.4,2.4,3,2.7,5.4c0.7,4.3-1.1,8.5-4.2,10
		C108.6,294.8,106.1,295.1,104,294.6z M108.6,292.1c2-0.9,3.2-3,3.3-5.9c0.1-2.2-0.3-4-1.4-5.4c-1.1-1.5-2.3-2-4.4-2
		c-1.5,0-1.9,0.1-2.8,0.7c-2,1.3-3,3.8-2.8,6.8c0.3,3.9,2.4,6.2,5.7,6.2C107.2,292.5,108.1,292.4,108.6,292.1z M123.3,294.6
		c-1.9-0.5-3.3-1.9-4.1-3.9c-0.3-0.9-0.4-2.1-0.5-7.4l-0.1-6.4h1.3h1.3v5.8c0,6.4,0.2,7.7,1.3,8.8c0.8,0.8,1.7,1.1,3,1.1
		c1.3,0,2.2-0.3,3-1.1c1.2-1.1,1.3-2.3,1.3-8.8v-5.8h1.3h1.3l-0.1,6.4c-0.1,5.3-0.2,6.6-0.5,7.5c-0.6,1.5-1.8,2.9-3.1,3.5
		C127.4,294.8,124.8,295,123.3,294.6z M220.8,294.6c-1.6-0.4-2.5-0.9-3.7-2.1c-1.9-1.9-2.8-5.3-2.3-8.6c0.4-2.3,1.2-3.9,2.7-5.4
		c1.6-1.5,3.1-2,5.6-2s4,0.5,5.6,2c1.6,1.4,2.4,3,2.7,5.4c0.7,4.3-1.1,8.5-4.2,10C225.4,294.8,222.9,295.1,220.8,294.6z
		 M225.5,292.1c2-0.9,3.2-3,3.3-5.9c0.1-2.2-0.3-4-1.4-5.4c-1.1-1.5-2.3-2-4.4-2c-1.5,0-1.9,0.1-2.8,0.7c-2,1.3-3,3.8-2.8,6.8
		c0.3,3.9,2.4,6.2,5.7,6.2C224,292.5,224.9,292.4,225.5,292.1z M297.2,294.6c-1.9-0.5-3.3-1.9-4.1-3.9c-0.3-0.9-0.4-2.1-0.5-7.4
		l-0.1-6.4h1.3h1.3v5.8c0,6.4,0.2,7.7,1.3,8.8c0.8,0.8,1.7,1.1,3,1.1s2.2-0.3,3-1.1c1.2-1.1,1.3-2.3,1.3-8.8v-5.8h1.3h1.3l-0.1,6.4
		c-0.1,5.3-0.2,6.6-0.5,7.5c-0.6,1.5-1.8,2.9-3.1,3.5C301.3,294.8,298.7,295,297.2,294.6z M384.1,294.5l-1.5-0.3l0.2-1.1
		c0.1-0.6,0.2-1.1,0.2-1.2c0,0,0.6,0.1,1.3,0.3c3.1,0.9,5.6-0.2,5.6-2.4c0-1.4-0.7-2.2-3.4-3.7c-1.4-0.7-2.7-1.7-3-2
		c-1.5-1.8-1.3-4.4,0.3-6.1c1.4-1.4,3.7-1.9,6.6-1.3l1.3,0.3l-0.1,1.2c0,0.6-0.1,1.2-0.1,1.2c0,0-0.5-0.1-1.1-0.3
		c-2-0.7-4.3-0.3-4.9,0.8c-0.4,0.8-0.3,1.8,0.4,2.6c0.3,0.4,1.5,1.2,2.6,1.8c2.6,1.4,3.6,2.5,4,4.1c0.7,3-0.7,5.4-3.9,6.2
		C386.9,295,386,295,384.1,294.5z M84.7,285.7v-8.9h4.9h4.9v1.2v1.2h-3.6h-3.6v2.5v2.5h3.4H94v1.2v1.2h-3.4h-3.4v2.9v2.9h3.6h3.6
		v1.2v1.2h-4.9h-4.9V285.7z M137.1,285.7v-8.9h1.3h1.3v7.7v7.7h3.6h3.6v1.2v1.2H142h-4.9V285.7z M157,285.7v-8.9h1.7h1.7l3.9,7.2
		l3.9,7.2l0.1-7.2l0.1-7.2h1.3h1.3v8.9v8.9l-1.7-0.1l-1.7-0.1l-4-7.2l-4-7.2l-0.1,7.3l-0.1,7.3h-1.3H157V285.7z M173.9,294.2
		c0.1-0.2,1.8-4.2,3.7-8.9l3.6-8.4h1.4h1.4l3.7,8.8c2,4.8,3.7,8.8,3.7,8.9c0,0-0.6,0.1-1.3,0.1l-1.3,0l-0.8-2.2l-0.8-2.2l-4.4-0.1
		l-4.4-0.1l-0.9,2.2l-0.9,2.2h-1.3C174,294.7,173.8,294.6,173.9,294.2z M185.9,287.7c-0.8-2.3-3.3-8.3-3.4-8.3
		c-0.1,0-2.5,5.7-3.5,8.5c0,0.1,1.5,0.2,3.5,0.2C185.8,288.1,186.1,288.1,185.9,287.7z M208.3,285.7v-8.9h1.3h1.3v8.9v8.9h-1.3h-1.3
		V285.7z M235.4,285.7v-8.9h1.7h1.7l3.9,7.2l3.9,7.2l0.1-7.2l0.1-7.2h1.3h1.3v8.9v8.9l-1.7-0.1l-1.7-0.1l-4-7.2l-4-7.2l-0.1,7.3
		l-0.1,7.3h-1.3h-1.3V285.7z M252.4,294.2c0.1-0.2,1.8-4.2,3.7-8.9l3.6-8.4h1.4h1.4l3.7,8.8c2,4.8,3.7,8.8,3.7,8.9
		c0,0-0.6,0.1-1.3,0.1l-1.3,0l-0.8-2.2l-0.8-2.2l-4.4-0.1l-4.4-0.1l-0.9,2.2l-0.9,2.2h-1.3C252.4,294.7,252.2,294.6,252.4,294.2z
		 M264.3,287.7c-0.8-2.3-3.3-8.3-3.4-8.3c-0.1,0-2.5,5.7-3.5,8.5c0,0.1,1.5,0.2,3.5,0.2C264.2,288.1,264.5,288.1,264.3,287.7z
		 M272.6,285.7v-8.9h1.3h1.3v7.7v7.7h3.6h3.6v1.2v1.2h-4.9h-4.9V285.7z M311,285.7v-8.9h1.7h1.7l3.9,7.2l3.9,7.2l0.1-7.2l0.1-7.2
		h1.3h1.3v8.9v8.9l-1.7-0.1l-1.7-0.1l-4-7.2l-4-7.2l-0.1,7.3l-0.1,7.3h-1.3H311V285.7z M329.7,285.7v-8.9h1.3h1.3v8.9v8.9H331h-1.3
		V285.7z M338.2,285.8l-3.3-8.9l1.3-0.1c0.7,0,1.3,0,1.4,0c0.1,0.1,1.3,3.4,2.7,7.5c1.4,4,2.6,7.5,2.7,7.7c0.2,0.5,0.3,0.2,3.3-8.1
		l2.5-7.1l1.3,0l1.3,0l-3.4,8.8c-1.8,4.9-3.4,8.9-3.4,8.9c0,0-0.7,0.1-1.6,0.1h-1.6L338.2,285.8z M354.1,285.7v-8.9h4.9h4.9v1.2v1.2
		h-3.6h-3.6v2.5v2.5h3.4h3.4v1.2v1.2h-3.4h-3.4v2.9v2.9h3.6h3.6v1.2v1.2H359h-4.9V285.7z M367.9,285.6v-9.1l3.7,0.1
		c3.2,0.1,3.9,0.2,4.9,0.6c1.4,0.6,2,1.3,2.4,2.8c0.5,1.7,0.1,3-1.1,4.2c-0.6,0.5-1.4,1-1.8,1.1l-0.8,0.2l0.6,0.5
		c0.7,0.5,1,1.2,3.2,5.7l1.4,2.9l-1.4,0l-1.4,0l-1.4-3.3c-0.8-1.8-1.7-3.6-2-4c-0.6-0.6-0.8-0.7-2.2-0.7h-1.5v4v4h-1.3h-1.3V285.6z
		 M374.5,284c1.1-0.5,1.8-1.4,1.8-2.5c0-1.8-1.3-2.6-4.1-2.6h-1.8v2.7v2.7h1.6C373,284.3,374.1,284.2,374.5,284z M396.2,285.7v-8.9
		h1.3h1.3v8.9v8.9h-1.3h-1.3V285.7z M422.4,290.9v-3.8l-3.2-4.9c-1.8-2.7-3.3-5-3.4-5.2c-0.1-0.2,0.2-0.3,1.2-0.3h1.4l2.7,4l2.7,4
		l2.5-4l2.5-4l1.5,0l1.5,0l-3.4,5.1L425,287v3.8v3.8h-1.3h-1.3V290.9z M197.7,286.7v-7.7h-2.8h-2.8v-1.2v-1.2h6.8h6.8v1.2v1.2H203
		h-2.7v7.7v7.7H199h-1.3V286.7z M407,286.7v-7.7h-2.8h-2.8v-1.2v-1.2h6.8h6.8v1.2v1.2h-2.7h-2.7v7.7v7.7h-1.3H407V286.7z
		 M152.8,253.7v-6.7h15.6h15.6v-2.3c0-1.3-0.1-2.5-0.1-2.7c-0.1-0.3-1.7-0.4-15.7-0.4h-15.5v-1.9v-1.9l7.8-0.1l7.8-0.1l0.1-3.5
		l0.1-3.5h-9.1H150v-2.1v-2.1h20.5h20.5v2.1v2.1h-8.8h-8.8v3.5v3.5h7.5h7.5v6.7v6.7h-15.6h-15.6v2.6v2.6h15.9h15.9v2v2h-18.1h-18.1
		V253.7z M106.2,244.6V229h-5.3h-5.3v-2.2v-2.2h5.3h5.3v-7.4v-7.4h2.3h2.3V235v25.2h-2.3h-2.3V244.6z M253.2,235.1V210h2.3h2.3v7.9
		v7.9h2.7h2.7v-7.9V210h2.3h2.3v25.1v25.1h-2.3h-2.3v-15.1v-15.1h-2.7h-2.7v15.1v15.1h-2.3h-2.3V235.1z M343,252.4l-0.1-7.8
		l-16.6-0.1l-16.6-0.1l0-1.1c0-0.6,0.1-1.5,0.1-2l0.1-0.9h15.2h15.2v-15.2V210h2.7h2.7v4.6v4.6h3.6h3.6v2.3v2.3h-3.6h-3.6v8.3v8.3
		h0.9h0.9v9.8v9.8h-2.3h-2.3L343,252.4z M392.2,254.4V252h3.3h3.3v-11.3v-11.3h2.6h2.6v11.3V252h3h3v-11.3v-11.3h2.3h2.3v11.3V252
		h3.1h3.1l0.5-1.3c0.3-0.7,0.8-2.5,1.1-3.8c1.2-5.4,1.3-6.6,1.4-18.5l0.1-11.2h-14.9h-14.9v-2.3v-2.3h17.1h17.1v13.2
		c0,10.3-0.1,13.8-0.4,16c-0.4,3.2-1.1,6.8-1.7,8.9L426,252h3.3h3.3v2.5v2.5h-20.1h-20.1V254.4z M68.8,242.6l-1.3-1.9l1.5-1.3
		c4-3.5,5.3-5.2,7.8-9.9c1.7-3.2,2.3-5,2.8-7.9c0.3-1.7,0.8-7.1,0.8-8.9c0-0.5,0.1-0.5,2.3-0.5h2.3v2.6c0,3,0.5,7.2,1.2,9.6
		c0.6,2.1,2.8,6.8,4.4,9.1c1.1,1.6,3.3,4,6,6.3l1.1,1l-1.3,1.8c-0.7,1-1.4,1.9-1.5,1.9c-0.4,0.1-3.9-2.7-5.6-4.6
		c-2.1-2.2-3.7-4.6-5.5-8.1l-1.3-2.6l-0.8,1.7c-1.7,3.8-4.1,7.5-6.6,9.8c-1.6,1.5-4.5,3.8-4.8,3.8C70.3,244.5,69.6,243.6,68.8,242.6
		z M228.1,229.1v-15.4h9.6h9.6v2v2h-7h-7V229v11.3h7.3h7.3v2.1v2.1H238h-9.8V229.1z M318.6,237.3c-1.6-0.5-3-1.5-4.3-2.9
		c-1.5-1.6-2.2-3.4-2.3-5.7c-0.3-4,1.8-7.5,5.5-9.3c1.2-0.6,1.6-0.6,3.9-0.6c2.3,0,2.7,0.1,3.9,0.6c1.8,0.8,3.8,2.8,4.6,4.4
		c2.4,4.8,0.4,10.7-4.5,13c-1.3,0.6-1.8,0.7-3.8,0.8C320.4,237.6,319.2,237.5,318.6,237.3z M323,232.8c1.8-0.6,3.4-2.8,3.4-4.7
		c0-2-1.8-4.3-3.9-4.8c-2.1-0.5-4.1,0.4-5.3,2.4c-1.4,2.3-0.6,5.5,1.8,6.7C320.7,233.3,321.5,233.4,323,232.8z M169.3,224.7
		c-4.8-0.7-8.3-4.9-8.3-9.8c0-7.4,7.7-12,14.4-8.7c2.9,1.4,4.9,4.5,5.2,7.8C181.1,220.6,175.8,225.7,169.3,224.7z M172.2,220.1
		c1.2-0.4,2.7-1.7,3.3-2.9c1.1-2.5,0.1-5.5-2.4-6.8c-1.1-0.6-1.5-0.7-2.6-0.6c-1.7,0.1-3.1,0.9-4,2.2c-0.6,0.8-0.7,1.3-0.8,2.6
		c-0.1,1.4,0,1.8,0.6,2.8C167.5,219.8,169.8,220.8,172.2,220.1z M308.2,215.6v-1.9h5.1h5.1v-2.3v-2.3h2.7h2.7v2.3v2.3h5h5v1.9v1.9
		h-12.9h-12.9V215.6z"/>
</g>
</svg>
