<?xml version="1.0"?>
<svg width="535" height="130" xmlns="http://www.w3.org/2000/svg" xmlns:svg="http://www.w3.org/2000/svg" version="1.1" xml:space="preserve">
 <desc>Created with Fabric.js 5.2.4</desc>

 <g class="layer" display="inline">
  <title>Layer 1</title>
  <g id="8ffb00ae-5d2b-4f72-96a9-30578aec9afa" transform="translate(-1 0) translate(1 0) translate(1 0) translate(-1 0) translate(-1 0) translate(-1 0) translate(-1 0) translate(-1 0) translate(-1 0) translate(-1 0) translate(-1 0) translate(-1 0) translate(-1 0) translate(-1 0) translate(1 0) translate(1 0) translate(1 0) translate(1 0) translate(-247 0) translate(0 1) translate(0 1) translate(-8 -15) translate(-46 -484) matrix(1 0 0 1 540 540)"/>
  <g id="svg_3" transform="translate(-1 0) matrix(1.57 0 0 1.57 63.08 64.91)">
   <path d="m215.03,-5.48l-2.44,0l0,3.09l2.44,0l0,-3.09zm-10.67,23.37c3.52,4.65 9.72,3.59 9.72,3.59c0.75,-6.59 -1.92,-8.72 -1.92,-8.72c-1.65,3.49 0.85,7.72 0.85,7.72c-3.76,-3.48 -8.65,-2.59 -8.65,-2.59m6.43,-36.15l-1.19,-1.1c-2.86,0.73 -4.94,3.26 -4.94,3.26c1.34,-3.21 0.62,-6.22 0.01,-7.82l-0.86,-0.71c-2.48,4.71 0.27,9.88 0.27,9.88c3.82,-0.92 5.76,-2.43 6.71,-3.51m7.99,42.98c-0.12,-2.05 -0.49,-3.54 -0.96,-4.73l-2.35,0.01c0.64,2.23 2.09,3.92 2.09,3.92c-4.32,-2.78 -8.97,-1.05 -8.97,-1.05c4.27,3.97 10.19,1.85 10.19,1.85m-0.58,-34.91l0,26.82l13.29,0c1.51,0.04 3.05,1.22 3.05,1.22l0,-21.46c-8.05,-0.17 -9.67,-6.58 -9.67,-6.58l-6.67,0zm6.29,16.31l-0.99,0l0,5.19l-1.26,0l0,-5.19l-0.99,0l0,-1.19l3.24,0l0,1.19zm6.27,5.29c-0.35,0 -0.79,-0.11 -1.08,-0.32l0,-1.2c0.3,0.2 0.58,0.34 0.96,0.34c0.4,0 0.72,-0.28 0.72,-0.7c0,-0.49 -0.39,-0.67 -0.74,-0.93c-0.73,-0.49 -1.18,-0.96 -1.18,-1.89c0,-1.01 0.59,-1.88 1.67,-1.88c0.41,0 0.77,0.11 1.11,0.31l0,1.23c-0.25,-0.22 -0.56,-0.41 -0.91,-0.41c-0.39,0 -0.63,0.24 -0.63,0.63c0,1.05 1.91,1.11 1.91,2.83c0,1.14 -0.64,1.99 -1.83,1.99m0.94,-14.24l1.26,0l0,6.38l-1.26,0l0,-6.38zm-3.97,0l1.27,0c0.81,0 2.24,0.08 2.24,1.83c0,0.7 -0.28,1.3 -0.9,1.64l1.11,2.9l-1.33,0l-1.11,-2.94l-0.02,0l0,2.94l-1.26,0l0,-6.37zm1.33,14.14l-1.34,0l-0.24,-1.08l-1.28,0l-0.23,1.08l-1.25,0l1.48,-6.38l1.33,0l1.53,6.38zm-1.58,-14.14l0,1.18l-1.28,0l0,1.39l1.12,0l0,1.18l-1.12,0l0,1.44l1.29,0l0,1.18l-2.55,0l0,-6.36l-1.76,6.36l-1.03,0l-1.85,-6.37l1.35,0l0.77,3.06c0.11,0.36 0.15,0.73 0.22,1.09l0.02,0c0.07,-0.37 0.09,-0.73 0.2,-1.11l0.77,-3.04l3.85,0zm21.58,-21.22l-3.99,4.33l0.04,6.92c0,0 -0.12,1.15 -0.37,1.71l2.56,0l7.32,-7.32l-5.57,-5.64l0.01,0zm-33.95,33.17l-2.44,0l0,3.08l2.44,0l0,-3.08zm3.99,-29.96l5.12,5.04l0,-3.9l-5.12,-5.13l0,3.99zm-4.04,43.18c0.32,0 0.58,-0.26 0.58,-0.58c0,-0.32 -0.26,-0.58 -0.58,-0.58c-0.32,0 -0.58,0.26 -0.58,0.58c0,0.32 0.26,0.58 0.58,0.58m-9.28,-41.28c0,0.32 0.26,0.58 0.58,0.58c0.32,0 0.58,-0.26 0.58,-0.58c0,-0.32 -0.26,-0.58 -0.58,-0.58c-0.32,0 -0.58,0.26 -0.58,0.58m9.31,37.05c0.02,0.27 0.07,-0.06 0.07,-0.06l0,-3.76l-0.62,0.69c0.35,0.95 0.48,2.31 0.55,3.13m9.13,-31.98l0,-0.8l-3.78,-3.78l-8.86,0l5,4.58l7.64,0zm-19.22,-10.76c0,0 -0.33,-2.07 1.82,-5.16l-7.27,0c0,0 0.31,0.85 5.45,5.16m-6.31,11.35c-1.3,5.69 3.5,9.75 3.5,9.75c5.52,-3.66 5.45,-7.07 5.45,-7.07c-3.74,0.98 -5.37,5.61 -5.37,5.61c0.25,-5.12 -3.58,-8.29 -3.58,-8.29m4.29,2.63c1.13,-5 -2.08,-8.78 -2.08,-8.78c-2.27,5.37 1.74,10.21 1.74,10.21c6.08,-2.64 6.6,-6.02 6.6,-6.02c-3.86,0.31 -6.26,4.59 -6.26,4.59m0.51,2.39c0,-0.32 -0.26,-0.58 -0.58,-0.58c-0.32,0 -0.58,0.26 -0.58,0.58c0,0.32 0.26,0.58 0.58,0.58c0.32,0 0.58,-0.26 0.58,-0.58m29.64,29.32l3.81,0c0,0 0.25,-1.65 1.33,-1.65l15.83,0l0,-27.86l-1.57,-1.66l0,27.61l-14.18,0c0,0 -1.91,0.17 -3.4,1.99c0,0 -1.16,-1.74 -3.65,-1.91l-13.85,0l0,-27.44l-1.7,1.7l0,27.57l15.47,0c0,0 1.91,0.08 1.91,1.65m-24.82,-51.19c-3.97,4.27 -1.85,10.19 -1.85,10.19c6.62,-0.4 8.25,-3.4 8.25,-3.4c-3.73,-1.02 -7.45,2.17 -7.45,2.17c2.77,-4.31 1.05,-8.96 1.05,-8.96m18.66,37.67l-0.14,-0.97l-0.02,0l-0.13,0.97l-0.27,1.69l0.89,0l-0.33,-1.69zm36.59,11.99c0.97,-0.6 1.88,-1.41 2.64,-2.53c0,0 -2.09,-0.27 -4.54,0.55l1.9,1.98zm4.03,-25.29c0,0 -1.73,-4.59 -5.49,-5.48c0,0 -0.01,3.42 5.61,6.94c0,0 4.7,-4.17 3.26,-9.83c0,0 -3.74,3.26 -3.38,8.37m-7.04,13.71c0,0 -2.2,2.62 -0.17,8.93c0,0 6.28,-0.18 8.82,-5.43c0,0 -4.96,0.09 -7.97,4.24c0,0 1.62,-4.63 -0.68,-7.73m6.89,-8.02c0,0 -0.91,-4.83 -4.46,-6.35c0,0 -0.6,3.36 4.32,7.81c0,0 5.35,-3.3 4.92,-9.12c0,0 -4.25,2.56 -4.78,7.66m-4.43,-1.45c0,0 -1.16,3.21 2.9,8.45c0,0 5.84,-2.32 6.43,-8.13c0,0 -4.63,1.78 -6.03,6.71c0,0 -0.07,-4.91 -3.3,-7.03m3.72,4.32c0.32,0 0.58,-0.27 0.58,-0.59c0,-0.31 -0.26,-0.57 -0.58,-0.57c-0.32,0 -0.58,0.26 -0.58,0.57c0,0.32 0.26,0.59 0.58,0.59m-3.39,9.9c0,-0.32 -0.25,-0.57 -0.57,-0.57c-0.32,0 -0.58,0.25 -0.58,0.57c0,0.33 0.26,0.58 0.58,0.58c0.32,0 0.57,-0.25 0.57,-0.58m-48.96,-34.5l0.01,0c-0.23,0.18 -1.84,1.65 -4.3,1.95l0.84,0.79l8.78,-0.04l-2.73,-2.73l0,0l-1.38,-1.38c0,0 -0.98,1.25 -1.22,1.41m33.94,28.4l-0.02,0l-0.13,0.97l-0.27,1.7l0.89,0l-0.33,-1.7l-0.14,-0.97zm-18.3,-7.61c0,-0.45 -0.22,-0.82 -0.86,-0.79l-0.16,0l0,1.7l0.22,0.01c0.57,0 0.8,-0.39 0.8,-0.92m5.42,-2.77l0,21.62c0,0 1.22,-1.22 2.92,-1.22l13.42,0l0,-26.82l-7.24,0c0,0 -2.05,6.32 -9.1,6.42m1.61,0.98l1.26,0l0,5.19l1.32,0l0,1.18l-2.58,0l0,-6.37zm4.09,14.14l-0.3,-4.59l-0.02,0l-0.2,1.57l-0.54,3.02l-0.98,0l-0.61,-3.05l-0.21,-1.42l0,-0.12l-0.02,0l-0.19,4.59l-1.35,0l0.56,-6.38l1.66,0l0.61,3.77l0.02,0l0.51,-3.77l1.69,0l0.67,6.38l-1.3,0zm8.07,0l-0.24,-1.08l-1.28,0l-0.22,1.08l-1.25,0l1.47,-6.38l1.33,0l1.53,6.38l-1.34,0zm-3.84,-14.14l1.42,0l0.36,0.89c0.11,0.31 0.24,0.64 0.31,0.97l0.01,0c0.07,-0.33 0.18,-0.65 0.29,-0.97l0.38,-0.89l1.36,0l-1.36,3.09l1.47,3.28l-1.47,0l-0.4,-1.01c-0.12,-0.32 -0.2,-0.63 -0.28,-0.95l-0.02,0c-0.09,0.32 -0.17,0.63 -0.28,0.95l-0.37,1.01l-1.42,0l1.35,-3.28l-1.35,-3.09zm0.34,7.76l0,1.19l-1.27,0l0,1.38l1.12,0l0,1.19l-1.12,0l0,1.44l1.29,0l0,1.18l-2.55,0l0,-6.38l2.53,0zm-3.24,-2.43c0.62,0 0.62,-0.46 0.62,-0.93l0,-4.4l1.27,0l0,4.65c0,0.68 -0.08,1.83 -1.9,1.83c-1.17,0 -1.87,-0.55 -1.87,-1.74l0,-4.74l1.26,0l0,4.13c0,0.48 -0.07,1.2 0.62,1.2m-24.17,-28.08c0,0 -0.57,0.84 -2.74,1.3l2.74,2.54l0,-3.84zm6.97,11.1c0,6.75 4.23,9.86 9.45,9.86c5.22,0 9.46,-3.1 9.46,-9.86l0,-19.23l-18.91,0c0,0 0,12.49 0,19.23m4.56,-13.63l0,-2.84l8.86,0l0,4.06l2.92,0l0,2.93l-2.84,0l0,1.3l2.84,0l0,3.17l-2.84,0l0,9.51l-2.44,0l-3.37,-3.37l-3.09,3.09l-2.24,-2.24l5.12,-5.12l2.65,2.64l0,-13.13l-5.57,0zm-12.64,14.91c0,0 2.26,1.99 2.26,1.99l5.09,0c-0.24,-0.41 -0.16,-1.95 -0.16,-1.95l-7.19,-0.04zm40.96,25.43c0,0 -0.41,0.43 -0.54,1.09l1.22,1.27c-0.07,-0.79 -0.27,-1.6 -0.68,-2.36m-48.14,5.2c1.88,-6.35 -0.37,-8.91 -0.37,-8.91c-2.24,3.14 -0.51,7.74 -0.51,7.74c-3.1,-4.08 -8.07,-4.05 -8.07,-4.05c2.66,5.19 8.95,5.22 8.95,5.22m-0.31,-42.11c6.58,0.75 8.71,-1.92 8.71,-1.92c-3.48,-1.65 -7.71,0.85 -7.71,0.85c3.48,-3.77 2.59,-8.65 2.59,-8.65c-4.65,3.52 -3.59,9.72 -3.59,9.72m13.78,46.58c0.32,3.85 4.59,6.26 4.59,6.26c-4.99,-1.13 -8.78,2.08 -8.78,2.08c5.38,2.27 10.21,-1.75 10.21,-1.75c-2.64,-6.08 -6.02,-6.59 -6.02,-6.59m-16.78,-9.12c2.96,-5.93 1.18,-8.85 1.18,-8.85c-2.75,2.71 -1.84,7.54 -1.84,7.54c-2.35,-4.56 -7.24,-5.39 -7.24,-5.39c1.72,5.58 7.9,6.7 7.9,6.7m13.29,7.19l-0.82,-0.01c-0.05,3.65 3.46,6.52 3.46,6.52c-4.73,-1.98 -9.02,0.52 -9.02,0.52c4.91,3.17 10.37,0.05 10.37,0.05c-1.07,-4.43 -2.93,-6.32 -3.99,-7.08m-12.2,2.75c0,0 0.9,-0.53 2.21,-0.73l-1.45,-0.34l-0.14,0.18c0.08,-0.12 0.14,-0.18 0.14,-0.18l-6.44,6.77c0,0 -0.73,1.06 -0.04,1.75c0,0 0.65,0.53 1.54,-0.08l6.27,-5.48c-0.63,-0.33 -2.02,-1.48 -2.09,-1.89m-3.54,-15.1c3.94,-5.33 2.7,-8.51 2.7,-8.51c-3.18,2.2 -3.12,7.11 -3.12,7.11c-1.53,-4.9 -6.2,-6.57 -6.2,-6.57c0.72,5.8 6.62,7.97 6.62,7.97m3.31,-38.14l-7.63,-7.62c0,0 -3.18,2.29 -0.71,7.62l8.34,0zm3.44,-2.77l-4.48,-4.53c-2.78,-2.77 -6.07,-0.94 -6.07,-0.94l8.83,8.79c0.59,-2.25 1.72,-3.32 1.72,-3.32m-8.25,36.21c0,0.32 0.26,0.58 0.58,0.58c0.32,0 0.57,-0.26 0.57,-0.58c0,-0.32 -0.25,-0.58 -0.57,-0.58c-0.32,0 -0.58,0.26 -0.58,0.58m-0.02,-0.8c4.81,-4.57 4.14,-7.91 4.14,-7.91c-3.52,1.61 -4.31,6.45 -4.31,6.45c-0.65,-5.09 -4.97,-7.54 -4.97,-7.54c-0.29,5.83 5.14,9 5.14,9m4.22,11.22c0,0.32 0.26,0.58 0.58,0.58c0.32,0 0.58,-0.26 0.58,-0.58c0,-0.32 -0.26,-0.58 -0.58,-0.58c-0.32,0 -0.58,0.26 -0.58,0.58m48.48,8.46c0.32,0 0.58,-0.26 0.58,-0.58c0,-0.32 -0.26,-0.58 -0.58,-0.58c-0.32,0 -0.58,0.26 -0.58,0.58c0,0.32 0.26,0.58 0.58,0.58m3.08,-0.76l-2.04,-1.66c0.05,0.52 0.11,1.07 0.21,1.66c0,0 0.73,0.08 1.83,0m5.7,-10.25c0,0 0.8,-4.85 -2.02,-7.5c0,0 -1.71,2.96 1.39,8.82c0,0 6.16,-1.26 7.75,-6.88c0,0 -4.88,0.95 -7.12,5.56m-38.64,16.17c0,-0.32 -0.26,-0.58 -0.58,-0.58c-0.32,0 -0.58,0.26 -0.58,0.58c0,0.32 0.26,0.58 0.58,0.58c0.32,0 0.58,-0.26 0.58,-0.58m27.42,-3.5c0,0 1.26,-1.5 1.87,-3.62l-2.35,-0.04c-0.38,1.16 -0.66,2.63 -0.72,4.5c0,0 5.08,1.68 9.16,-1.27l-1.57,-1.26c-1.74,-0.1 -4.13,0.16 -6.39,1.69m1.72,-9.39l0,3.09l13.82,11.46l2.76,0l-14.07,-14.55l-2.51,0zm-20.25,13.33l0,1.45c-0.66,-1.05 -3.27,-4.86 -6.21,-5.05c0,0 1,3.4 5.41,5.41c0,0 -5.53,0.36 -7.79,3.38c0,0 4.82,0.44 8.59,-3.31l0,2.35l1.47,0l0,-4.23l-1.47,0zm2.44,1.79c4.39,-2.03 5.37,-5.44 5.37,-5.44c-3.42,0.24 -6.34,5.36 -6.34,5.36c3.82,3.9 8.78,3.42 8.78,3.42c-2.28,-3.01 -7.81,-3.34 -7.81,-3.34m5.67,-1.2c0,0 4.23,-2.51 4.45,-6.37c0,0 -3.37,0.6 -5.86,6.74c0,0 4.92,3.9 10.25,1.5c0,0 -3.86,-3.12 -8.84,-1.87m5.41,-1.81c0,0 3.28,-2.82 3.31,-6.34l-1.17,0.05c-1.06,0.93 -2.61,2.9 -3.47,6.9c0,0 5.53,2.98 10.35,-0.3c0,0 -4.34,-2.4 -9.02,-0.31m-2.91,0.56c0,0.32 0.26,0.58 0.58,0.58c0.32,0 0.58,-0.26 0.58,-0.58c0,-0.32 -0.26,-0.58 -0.58,-0.58c-0.32,0 -0.58,0.26 -0.58,0.58m20.48,-42.25c0,0 2.99,-5.53 -0.29,-10.36c0,0 -2.41,4.34 -0.32,9.03c0,0 -3.19,-3.72 -7.03,-3.27c0,0 1.16,3.21 7.64,4.6m-14.06,-12.93l1.76,-1.81c-1.5,-0.35 -4.3,-0.85 -6.57,0.84c0,0 1.17,1.32 4.81,0.97m11.67,9.38c0.32,0 0.58,-0.26 0.58,-0.58c0,-0.31 -0.26,-0.58 -0.58,-0.58c-0.32,0 -0.58,0.27 -0.58,0.58c0,0.32 0.26,0.58 0.58,0.58m3.96,9.04c0,0 3.9,-4.93 1.51,-10.25c0,0 -3.13,3.86 -1.88,8.84c0,0 -2.5,-4.23 -6.36,-4.45c0,0 0.59,3.36 6.73,5.86m-8.44,-27.75c1.83,0.9 3.3,-0.05 3.3,-0.05c2.04,-1 3.51,0.39 3.51,0.39c1.41,1.11 1.18,2.56 1.18,2.56c0,1.12 -0.32,1.2 -0.32,1.2c-0.68,0.46 -0.51,-0.32 -0.51,-0.32c0.02,-0.01 0.16,-0.55 0.16,-0.55c0.26,-2.53 -2,-2.89 -2,-2.89c-2.41,-0.42 -3,1.8 -3,1.8c-0.16,0.61 -0.17,1.16 -0.1,1.64l-3,-3.01l0.14,2.54l6.7,6.71l2.4,0l-2.43,-2.44c1.28,0.4 2.41,0.45 2.41,0.45c3.43,-0.21 3.79,-3.49 3.79,-3.49c0.9,-3.42 -2.34,-6.18 -2.34,-6.18c-2.17,-1.86 -5.44,-2.01 -5.44,-2.01c-4.66,-0.54 -6.31,-3.52 -6.31,-3.52c-0.54,1.36 -0.4,3.36 -0.4,3.36c0.31,3.08 2.26,3.8 2.26,3.8m7.62,28.71c0,0.32 0.26,0.58 0.58,0.58c0.31,0 0.58,-0.26 0.58,-0.58c0,-0.32 -0.27,-0.58 -0.58,-0.58c-0.32,0 -0.58,0.26 -0.58,0.58m-12.71,-21.63l1.42,-1.44c-0.6,-2.02 -1.82,-4.47 -4.84,-5.92c0,0 -0.12,4.33 3.42,7.36m3.56,40.06l-2.44,0l0,3.09l2.44,0l0,-3.09zm1.89,-30.61c1.08,0.31 2.4,0.54 4.02,0.6c0,0 0.73,-2.18 0.41,-4.84l-2.11,2.02c0.23,0.54 0.51,1.08 0.87,1.61c0,0 -0.58,-0.48 -1.51,-0.99l-1.68,1.6zm-46.33,-6.59c0,0.32 0.26,0.58 0.58,0.58c0.32,0 0.58,-0.26 0.58,-0.58c0,-0.32 -0.26,-0.58 -0.58,-0.58c-0.32,0 -0.58,0.26 -0.58,0.58m51.02,0.7l-6.26,-6.26l-5.61,6.09l6.01,5.94l5.86,-5.77zm-13.29,0.2l-1.26,1.5l6.83,6.83l1.38,-1.38l-6.95,-6.95zm6.58,21.18l-2.44,0l0,3.08l2.44,0l0,-3.08zm-29.22,-29.5c0,0 1.92,1.27 5.29,-1.05c0,0 -4.17,-1.72 -5.29,1.05m21.75,2.19c0,0 -1.89,-0.58 -4.29,0.24l0,2.18c1.46,-0.02 2.94,-0.38 5.61,-1.79c0,0 -1.26,-6.16 -6.88,-7.74c0,0 0.95,4.87 5.56,7.11m-25.17,2.72l0.05,-2.13c-2.37,-0.69 -4.76,-0.24 -4.76,-0.24c4.56,-2.35 5.39,-7.24 5.39,-7.24c-5.58,1.71 -6.7,7.9 -6.7,7.9c2.57,1.28 4.58,1.67 6.02,1.71m-1.75,1.23c-3.15,-2.24 -7.75,-0.51 -7.75,-0.51c4.08,-3.1 4.05,-8.07 4.05,-8.07c-5.19,2.66 -5.22,8.95 -5.22,8.95c6.35,1.88 8.92,-0.37 8.92,-0.37m-0.36,-4.67c0,0.32 0.26,0.58 0.58,0.58c0.32,0 0.58,-0.26 0.58,-0.58c0,-0.32 -0.26,-0.58 -0.58,-0.58c-0.32,0 -0.58,0.26 -0.58,0.58m1.4,-0.61l4.37,-0.06c-1.36,-0.82 -2.84,-0.79 -2.84,-0.79c4.89,-1.52 6.29,-5.89 6.29,-5.89c-5.79,0.73 -7.97,6.63 -7.97,6.63c0.08,0.05 0.08,0.05 0.15,0.11m23.34,0.3c0,-0.32 -0.25,-0.58 -0.57,-0.58c-0.33,0 -0.58,0.26 -0.58,0.58c0,0.32 0.25,0.58 0.58,0.58c0.32,0 0.57,-0.26 0.57,-0.58m-3.07,-1.15c0,0 -1.48,-0.03 -2.84,0.79l4.37,0.06c0.08,-0.06 0.08,-0.06 0.15,-0.11c0,0 -2.17,-5.9 -7.97,-6.63c0,0 1.4,4.37 6.29,5.89m-9.39,-0.67c0.42,0 0.77,-0.35 0.77,-0.78c0,-0.42 -0.35,-0.77 -0.77,-0.77c-0.43,0 -0.78,0.35 -0.78,0.77c0,0.43 0.35,0.78 0.78,0.78m6.78,0.41c-1.22,-2.73 -5.32,-0.86 -5.32,-0.86c3.45,2.2 5.32,0.86 5.32,0.86" fill="rgb(0,51,128)" fill-rule="nonzero" id="svg_4" stroke="rgb(0,0,0)" stroke-dashoffset="0" stroke-miterlimit="4" stroke-width="0" transform=" translate(-234.96, 6.12)"/>
  </g>
  <text fill="#003380" font-family="Helvetica" font-size="22.34" font-style="italic" font-weight="normal" id="svg_112" lengthAdjust="spacingAndGlyphs" stroke="#000000" stroke-width="0" text-anchor="middle" textLength="0" x="331.5" xml:space="preserve" y="76.73">Lab. of Physical Properties and Process</text>
  <text fill="#003380" font-family="Helvetica" font-size="32" font-style="normal" font-weight="normal" id="svg_115" letter-spacing="1.5" stroke="#000000" stroke-width="0" text-anchor="middle" word-spacing="0" x="331.5" xml:space="preserve" y="49">Seoul National University</text>
  <text fill="#003380" font-family="Helvetica" font-size="22.34" font-style="italic" font-weight="normal" id="svg_116" lengthAdjust="spacingAndGlyphs" letter-spacing="1" stroke="#000000" stroke-width="0" text-anchor="middle" textLength="0" transform="matrix(1 0 0 1 0 0)" word-spacing="1" x="330.01" xml:space="preserve" y="106.5">Engineering of Agricultural Products</text>
 </g>
</svg>